<?xml version="1.0" encoding="UTF-8"?>
<svg width="80px" height="80px" viewBox="0 0 80 80" version="1.1" xmlns="http://www.w3.org/2000/svg" xmlns:xlink="http://www.w3.org/1999/xlink">
    <!-- Generator: Sketch 59.1 (86144) - https://sketch.com -->
    <title>icons/tc/system-active</title>
    <desc>Created with Sketch.</desc>
    <defs>
      <linearGradient id="gradient" x1="0%" y1="0%" x2="100%" y2="100%">
        <stop offset="0%" style="stop-color:#00AF40;stop-opacity:1" />
        <stop offset="100%" style="stop-color:#009640;stop-opacity:1" />
      </linearGradient>
    </defs>
  <g>
    <rect height="100%" width="100%" fill="url(#gradient)" />
  </g>
  <g id="icon-status-copy" transform="translate(18.000000, 15.000000)" fill="#FFFFFF">
    <g id="normal">
      <g id="icon-base">
        <path d="M21.6756757,-1.42108547e-14 C23.2433858,-1.42108547e-14 24.7934009,0.142619949 26.3122876,0.423828741 C26.786306,0.511589178 27.1302399,0.925044412 27.1302399,1.40711845 L27.1302399,1.40711845 L27.1302399,7.72425342 L29.0366118,8.47104809 L33.294026,3.70723635 C33.6122556,3.35115489 34.1378529,3.26978042 34.5488617,3.51295908 C37.3841841,5.19051399 39.8702065,7.40912359 41.8606624,10.0343761 C42.1638972,10.4343185 42.1236958,10.9970775 41.7666896,11.3498548 L41.7666896,11.3498548 L37.2362671,15.8266131 L38.632338,18.6090347 L45.8987579,18.6090347 C46.3369779,18.6090347 46.7241461,18.8943522 46.85391,19.3129189 C47.4067861,21.0962776 47.4067861,28.2549452 46.8711294,30.4861805 C46.763196,30.9357683 46.3611201,31.2527416 45.8987579,31.2527416 L45.8987579,31.2527416 L38.6170957,31.2527416 L37.7085117,32.9674079 L42.7589631,37.8528829 C43.1032094,38.1858842 43.1630069,38.7162143 42.9015567,39.117511 C41.0622539,41.9406336 38.6743822,44.3749488 35.8874934,46.2687469 C35.501592,46.5309817 34.985632,46.4915069 34.6441143,46.1736191 L34.6441143,46.1736191 L29.7656941,41.6327409 L27.1315269,42.7191625 L27.1315269,49.224041 C27.1315269,49.7060947 26.7876213,50.1195385 26.3136277,50.2073209 C24.7943134,50.4886938 23.2438474,50.6313977 21.6756757,50.6313977 C21.1233909,50.6313977 20.6756757,50.1836825 20.6756757,49.6313977 L20.6756757,49.6313977 L20.6753943,46.9773292 C9.16857921,46.4546595 -1.77635684e-15,36.9602101 -1.77635684e-15,25.3243243 C-1.77635684e-15,13.6884385 9.16857921,4.19398914 20.6753943,3.67131949 L20.6756757,1 C20.6756757,0.44771525 21.1233909,-1.42108547e-14 21.6756757,-1.42108547e-14 Z M22.6756757,2.02104074 L22.6755802,17.0866604 C26.7865667,17.5804393 29.972973,21.0802693 29.972973,25.3243243 C29.972973,29.5683793 26.7865667,33.0682093 22.6755802,33.5619883 L22.6756757,48.610357 C23.5016719,48.5755298 24.3210437,48.4975648 25.1315269,48.3771861 L25.1315269,48.3771861 L25.1315269,42.0498844 C25.1315269,41.644869 25.3758272,41.2798484 25.7502477,41.1254245 L25.7502477,41.1254245 L29.5961798,39.5392292 C29.957559,39.3901839 30.3726535,39.4653751 30.6587892,39.7317129 L30.6587892,39.7317129 L35.4128804,44.1568644 C37.4817771,42.6457307 39.2918651,40.8025409 40.7649588,38.7066285 L40.7649588,38.7066285 L35.7776338,33.8822179 C35.4575854,33.572624 35.3808002,33.0887121 35.5892907,32.6952518 L35.5892907,32.6952518 L37.1316552,29.784524 C37.3050248,29.4573435 37.6449927,29.2527416 38.0152684,29.2527416 L38.0152684,29.2527416 L45.0573057,29.2527416 C45.3355143,27.0566046 45.3403842,22.5768586 45.0799489,20.6090347 L45.0799489,20.6090347 L38.0152684,20.6090347 C37.6369994,20.6090347 37.291106,20.3955945 37.1214666,20.0574969 L37.1214666,20.0574969 L35.1229178,16.0743141 C34.9286714,15.6871737 35.0057435,15.2189902 35.3138383,14.9145449 L35.3138383,14.9145449 L39.725282,10.5553561 C38.1623265,8.64645564 36.3055042,6.99352213 34.227911,5.66362856 L34.227911,5.66362856 L30.0646848,10.3220491 C29.7862289,10.6336259 29.3433953,10.7392087 28.9543112,10.5867904 L28.9543112,10.5867904 L25.765492,9.33761485 C25.3823311,9.1875169 25.1302399,8.81801998 25.1302399,8.40650855 L25.1302399,8.40650855 L25.1302399,2.25402054 C24.3201761,2.13375038 23.5012346,2.0558495 22.6756757,2.02104074 L22.6756757,2.02104074 Z M20.6755035,5.67362907 C17.6983221,5.82269054 14.8954796,6.63349867 12.4110699,7.96195965 L13.6331062,10.1173818 C13.7692479,10.3576318 13.6848514,10.6627575 13.4446014,10.7988992 C13.2043514,10.9350408 12.8992257,10.8506443 12.763084,10.6103943 L12.763084,10.6103943 L11.5418486,8.45559489 C8.90933591,10.0404684 6.67815305,12.2241457 5.03681953,14.8181074 L7.15125211,16.0794814 C7.38841593,16.2209308 7.4660078,16.5278575 7.32455839,16.7650213 C7.18310899,17.0021851 6.87618233,17.079777 6.63901851,16.9383276 L6.63901851,16.9383276 L4.52334618,15.6772085 C2.99322719,18.3918848 2.08893484,21.506286 2.0062208,24.8246603 L4.97951207,24.8243243 C5.25565444,24.8243243 5.47951207,25.0481819 5.47951207,25.3243243 C5.47951207,25.6004667 5.25565444,25.8243243 4.97951207,25.8243243 L4.97951207,25.8243243 L2.00624576,25.8249886 C2.08065822,28.804331 2.81734718,31.6192301 4.07463328,34.1280068 L6.65136866,32.6890465 C6.89246978,32.5544179 7.1970589,32.6407309 7.33168751,32.881832 C7.46631611,33.1229332 7.38000308,33.4275223 7.13890196,33.5621509 L7.13890196,33.5621509 L4.54549674,35.0106338 C6.09183529,37.7394485 8.27138063,40.0622592 10.8844573,41.7793902 L12.2692068,39.3928747 C12.4078233,39.154044 12.7138046,39.0728044 12.9526353,39.2114209 C13.1914659,39.3500373 13.2727056,39.6560187 13.1340891,39.8948493 L13.1340891,39.8948493 L11.7339817,42.3072429 C14.3815472,43.8604588 17.4245896,44.8122529 20.6755035,44.9750196 L20.6753968,33.5618218 C19.4512271,33.4145367 18.2857482,32.9980405 17.2503294,32.3440942 C18.2025879,31.3602629 18.7410826,30.8995093 18.8658135,30.9618333 C19.7282897,31.3927848 20.6842399,31.6216216 21.6756757,31.6216216 C25.1535769,31.6216216 27.972973,28.8022256 27.972973,25.3243243 C27.972973,21.8464231 25.1535769,19.027027 21.6756757,19.027027 C18.9757283,19.027027 16.6170313,20.7409312 15.7395627,23.2157808 C15.698488,23.3316295 14.9987196,23.3427402 13.6402575,23.2491129 C14.4938077,19.9356386 17.3023873,17.49447 20.6750274,17.0871037 Z M9.7283867,24.3156986 L21.6763976,24.3243246 C22.5843767,24.3249801 23.0216131,25.4378092 22.3569284,26.0563726 L22.3569284,26.0563726 L10.4089175,37.1753324 C10.0046184,37.5515779 9.37186202,37.528836 8.99561651,37.1245369 C8.619371,36.7202378 8.64211293,36.0874814 9.04641203,35.7112359 L9.04641203,35.7112359 L19.1352003,26.3224906 L9.72694287,26.3156986 C9.17465826,26.3152999 8.72726634,25.8672616 8.72766049,25.314977 C8.72806375,24.7626924 9.17610209,24.3153004 9.7283867,24.3156986 L9.7283867,24.3156986 Z" id="Combined-Shape"></path>
      </g>
    </g>
  </g>
</svg>