<?xml version="1.0" encoding="UTF-8"?>
<svg width="219.4" height="65.854" version="1.1" viewBox="0 0 219.39866 65.853646" xmlns="http://www.w3.org/2000/svg">
  <g transform="matrix(1.3333 0 0 -1.3333 14.967 51.067)" fill="#ed1c24">
    <path d="m6.0617 11.723c2.5723-0.1023 4.2871-0.0339 4.2871-3.0105 0-3.4555-1.2687-3.25-4.2871-3.3184zm0 10.093c2.1266 0 3.8758 0.1024 3.8758-2.4289 0-3.0449-1.2348-2.8738-3.8758-3.0449zm2.4695-21.04c4.9046 0 7.8542 2.2238 7.8542 7.4238 0 3.1821-0.5832 4.5504-3.3269 6.1242v0.0684c2.0922 1.1289 2.9152 3.1473 2.9152 5.4051 0 5.166-3.5668 6.6371-8.1285 6.6371h-7.8203v-25.659h8.5062" fill-rule="evenodd"/>
    <g>
      <path d="m33.109 0.77539v5.132h-8.1977v5.5422h7.5461v5.1317h-7.5461v4.721h7.786v5.1317h-13.822v-25.659h14.234"/>
      <path d="m51.847 17.471v2.1555c0 5.234-3.0867 7.4238-8.2317 7.4238-5.5222 0-8.0945-2.6004-8.0945-8.1766v-10.537c0-5.2344 2.1609-8.1766 7.7172-8.1766 6.1738 0 8.7121 3.0789 8.7121 7.4926v3.1469h-6.0367v-2.3262c0-1.5734-0.1715-3.6945-2.2293-3.6945-1.5781 0-2.161 0.85507-2.161 2.2918l0.0344 12.693c0 1.6766 0.4457 2.7023 2.3321 2.6684 1.132 0 1.921-1.129 1.921-3.3184v-1.6422h6.0364"/>
      <path d="m60.51 0.77539v6.3293l1.3375 2.6 3.3269-8.9293h6.3797l-5.8309 14.335 5.4879 11.324h-6.1738l-4.459-10.264h-0.0683v10.264h-6.0368v-25.659h6.0368"/>
      <path d="m79.188 0.77539v10.674h4.1844v-10.674h6.0367v25.659h-6.0367v-9.8527h-4.1844v9.8527h-6.0363v-25.659h6.0363"/>
    </g>
    <path d="m102.22 8.4387c0-1.4707-0.137-3.6602-2.093-3.6602-1.9546 0-2.1948 2.1894-2.1948 3.6602v10.537c0 1.5738 0.2402 3.4555 2.1608 3.4555 1.99 0 2.127-1.8817 2.127-3.4555zm6.036 10.948c0 4.9262-2.846 7.6633-8.129 7.6633-5.2816 0-8.2312-2.7371-8.2312-7.6633v-10.435c0-5.7816 2.1266-8.7922 8.2312-8.7922 6.106 0 8.129 3.0105 8.129 8.7922v10.435" fill-rule="evenodd"/>
    <path d="m117.02 0.77539v10.845h7.512v5.1316h-7.512v4.55h8.163v5.1317h-14.199v-25.659h6.036"/>
    <path d="m133.91 0.77539v10.845h7.512v5.1316h-7.512v4.55h8.163v5.1317h-14.199v-25.659h6.036"/>
  </g>
</svg>
