<?xml version="1.0" encoding="UTF-8"?>
<svg width="80px" height="80px" viewBox="0 0 80 80" version="1.1" xmlns="http://www.w3.org/2000/svg" xmlns:xlink="http://www.w3.org/1999/xlink">
    <!-- Generator: Sketch 59.1 (86144) - https://sketch.com -->
    <title>icons/tc/plc-active</title>
    <desc>Created with Sketch.</desc>
  <g>
    <rect height="100%" width="100%" fill="#E4E9ED" />
  </g>
  <g id="icon-status-copy" transform="translate(13.000000, 19.000000)" fill="#FFFFFF">
    <g id="normal">
      <g id="icon-base">
        <path d="M21.1233115,0 C21.6755963,0 22.1233115,0.44771525 22.1233115,1 L22.123,8 L32.1233115,8 L32.1233115,8 L32.1233115,1 C32.1233115,0.44771525 32.5710268,0 33.1233115,0 L48.1233115,0 C48.6755963,0 49.1233115,0.44771525 49.1233115,1 L49.123,8 L53.1233115,8 C53.6361474,8 54.0588187,8.38604019 54.1165838,8.88337887 L54.1233115,9 C54.1233115,9.55228475 53.6755963,10 53.1233115,10 L53.1233115,10 L49.123,10 L49.123,18 L53.1233115,18 C53.6361474,18 54.0588187,18.3860402 54.1165838,18.8833789 L54.1233115,19 C54.1233115,19.5522847 53.6755963,20 53.1233115,20 L53.1233115,20 L49.123,20 L49.123,33 L53.1233115,33 C53.6361474,33 54.0588187,33.3860402 54.1165838,33.8833789 L54.1233115,34 C54.1233115,34.5522847 53.6755963,35 53.1233115,35 L53.1233115,35 L49.123,35 L49.1233115,41 C49.1233115,41.5522847 48.6755963,42 48.1233115,42 L33.1233115,42 C32.5710268,42 32.1233115,41.5522847 32.1233115,41 L32.1233115,35 L2.12331152,35 C1.57102677,35 1.12331152,34.5522847 1.12331152,34 C1.12331152,33.4477153 1.57102677,33 2.12331152,33 L2.12331152,33 L32.1233115,33 L32.1233115,33 L32.1233115,20 L22.123,20 L22.1233115,27 C22.1233115,27.5522847 21.6755963,28 21.1233115,28 L6.12331152,28 C5.57102677,28 5.12331152,27.5522847 5.12331152,27 L5.123,20 L1,20 C0.487164161,20 0.0644928393,19.6139598 0.00672773133,19.1166211 L0,19 C0,18.4477153 0.44771525,18 1,18 L1,18 L5.123,18 L5.123,10 L1.12331152,10 C0.610475682,10 0.18780436,9.61395981 0.130039252,9.11662113 L0.123311521,9 C0.123311521,8.44771525 0.571026771,8 1.12331152,8 L1.12331152,8 L5.123,8 L5.12331152,1 C5.12331152,0.44771525 5.57102677,0 6.12331152,0 L21.1233115,0 Z M47.1233115,2 L34.1233115,2 L34.1233115,40 L47.1233115,40 L47.1233115,2 Z M20.1233115,2 L7.12331152,2 L7.12331152,26 L20.1233115,26 L20.1233115,2 Z M32.1233115,10 L22.123,10 L22.123,18 L32.1233115,18 L32.1233115,18 L32.1233115,10 Z" id="Combined-Shape"></path>
      </g>
    </g>
  </g>
</svg>